<svg xmlns="http://www.w3.org/2000/svg" version="1.1" xmlns:xlink="http://www.w3.org/1999/xlink" xmlns:svgjs="http://svgjs.com/svgjs" width="1440" height="560" preserveAspectRatio="none" viewBox="0 0 1440 560"><g mask="url(&quot;#SvgjsMask1080&quot;)" fill="none"><rect width="1440" height="560" x="0" y="0" fill="url(#SvgjsLinearGradient1081)"></rect><path d="M 0,155 C 48,124.6 144,-18.6 240,3 C 336,24.6 384,245.4 480,263 C 576,280.6 624,90.8 720,91 C 816,91.2 864,273.6 960,264 C 1056,254.4 1104,42.4 1200,43 C 1296,43.6 1392,222.2 1440,267L1440 560L0 560z" fill="#184a7e"></path><path d="M 0,556 C 72,514.8 216,377 360,350 C 504,323 576,434.4 720,421 C 864,407.6 936,273.6 1080,283 C 1224,292.4 1368,431 1440,468L1440 560L0 560z" fill="#2264ab"></path></g><defs><mask id="SvgjsMask1080"><rect width="1440" height="560" fill="#ffffff"></rect></mask><linearGradient x1="15.28%" y1="-39.29%" x2="84.72%" y2="139.29%" gradientUnits="userSpaceOnUse" id="SvgjsLinearGradient1081"><stop stop-color="#0e2a47" offset="0"></stop><stop stop-color="#00459e" offset="1"></stop></linearGradient></defs></svg>